<svg width="24" height="24" viewBox="0 0 24 24" fill="none" xmlns="http://www.w3.org/2000/svg">
<g id="fi-rr-balloons" clip-path="url(#clip0_7_5014)">
<path d="M18.8487 11.53C19.5078 10.4632 19.8954 9.25123 19.9777 8C19.9777 7.73478 19.8723 7.48043 19.6848 7.29289C19.4972 7.10536 19.2429 7 18.9777 7C18.7125 7 18.4581 7.10536 18.2706 7.29289C18.083 7.48043 17.9777 7.73478 17.9777 8C17.8965 8.87587 17.6142 9.72117 17.1527 10.47C17.0831 10.5816 17.0361 10.7059 17.0146 10.8356C16.993 10.9654 16.9972 11.0981 17.0269 11.2263C17.0566 11.3544 17.1112 11.4754 17.1877 11.5825C17.2642 11.6895 17.3611 11.7804 17.4727 11.85C17.5843 11.9196 17.7085 11.9665 17.8383 11.9881C17.9681 12.0097 18.1008 12.0055 18.2289 11.9758C18.4877 11.9158 18.7121 11.7554 18.8527 11.53H18.8487Z" fill="#374957"/>
<path id="_2" d="M8.9767 7C8.71148 7 8.45713 7.10536 8.26959 7.29289C8.08206 7.48043 7.9767 7.73478 7.9767 8C7.89555 8.87587 7.61322 9.72117 7.1517 10.47C7.01114 10.6954 6.96588 10.9675 7.02589 11.2263C7.08591 11.4851 7.24627 11.7094 7.4717 11.85C7.69713 11.9906 7.96917 12.0358 8.22797 11.9758C8.48677 11.9158 8.71113 11.7554 8.8517 11.53C9.50937 10.4629 9.89563 9.25089 9.9767 8C9.9767 7.73478 9.87134 7.48043 9.6838 7.29289C9.49627 7.10536 9.24191 7 8.9767 7Z" fill="#374957"/>
<path id="_3" d="M19.5 18.5892C18.818 18.2272 18.114 17.8522 18.016 17.4272C17.97 17.2342 17.991 16.7992 18.531 15.9542C21.7 15.5002 24 11.0252 24 7.00015C24.0279 6.2047 23.8919 5.412 23.6002 4.67141C23.3086 3.93082 22.8676 3.25818 22.3048 2.69536C21.742 2.13254 21.0693 1.69159 20.3287 1.39995C19.5882 1.10831 18.7955 0.972218 18 1.00015C17.033 0.973669 16.0745 1.18691 15.2099 1.62085C14.3453 2.05479 13.6016 2.69595 13.045 3.48715C12.2732 2.15559 11.0837 1.11579 9.6609 0.528915C8.2381 -0.0579565 6.66145 -0.159125 5.17532 0.241089C3.68918 0.641303 2.37656 1.52055 1.44089 2.74255C0.505216 3.96456 -0.00124407 5.46107 2.2949e-06 7.00015C2.2949e-06 10.9712 2.257 15.4852 5.39 16.6852C5.17323 17.0461 5.03997 17.451 5 17.8702C5 19.4412 6.489 20.1372 7.576 20.6462C8.176 20.9262 9 21.3112 9 21.6092C8.91854 21.9197 8.77272 22.2096 8.572 22.4602C8.50109 22.5707 8.45265 22.6942 8.42945 22.8235C8.40625 22.9528 8.40874 23.0854 8.43678 23.2137C8.46482 23.342 8.51787 23.4636 8.59289 23.5714C8.66791 23.6792 8.76343 23.7712 8.874 23.8422C9.09731 23.9854 9.36837 24.034 9.62755 23.9774C9.75588 23.9493 9.87743 23.8963 9.98526 23.8213C10.0931 23.7463 10.1851 23.6507 10.256 23.5402C10.6804 22.9791 10.9383 22.3099 11 21.6092C11 20.0382 9.511 19.3422 8.424 18.8342C7.824 18.5532 7 18.1682 6.991 17.9692C7.14303 17.6109 7.33348 17.2703 7.559 16.9532C9.911 16.6472 11.89 14.4532 13.011 11.7532C13.6406 13.4205 14.8532 14.8032 16.424 15.6452C16.0514 16.328 15.9257 17.1184 16.068 17.8832C16.374 19.1932 17.587 19.8382 18.562 20.3572C19.178 20.6852 19.875 21.0572 19.981 21.4252C20.0073 21.8105 19.8956 22.1926 19.666 22.5032C19.5993 22.6169 19.5558 22.7428 19.5379 22.8734C19.52 23.0041 19.5282 23.137 19.5619 23.2645C19.5956 23.392 19.6542 23.5116 19.7343 23.6163C19.8144 23.7211 19.9145 23.809 20.0287 23.8749C20.1429 23.9409 20.269 23.9836 20.3998 24.0006C20.5306 24.0176 20.6634 24.0085 20.7907 23.974C20.918 23.9394 21.0371 23.88 21.1414 23.7992C21.2456 23.7184 21.3328 23.6178 21.398 23.5032C21.6594 23.1241 21.8394 22.6949 21.9265 22.2427C22.0136 21.7905 22.0059 21.3252 21.904 20.8762C21.6813 20.3506 21.3531 19.8764 20.9395 19.483C20.526 19.0896 20.036 18.7853 19.5 18.5892ZM7 15.0002C4.354 15.0002 2 10.5262 2 7.00015C2 5.67407 2.52679 4.4023 3.46447 3.46462C4.40215 2.52694 5.67392 2.00015 7 2.00015C8.32609 2.00015 9.59785 2.52694 10.5355 3.46462C11.4732 4.4023 12 5.67407 12 7.00015C12 10.5262 9.646 15.0002 7 15.0002ZM14 7.00015C13.9699 6.46697 14.0527 5.93343 14.243 5.43447C14.4334 4.93551 14.727 4.48238 15.1046 4.10476C15.4822 3.72714 15.9354 3.43354 16.4343 3.24318C16.9333 3.05283 17.4668 2.97001 18 3.00015C18.5332 2.97001 19.0667 3.05283 19.5657 3.24318C20.0646 3.43354 20.5178 3.72714 20.8954 4.10476C21.273 4.48238 21.5666 4.93551 21.757 5.43447C21.9473 5.93343 22.0301 6.46697 22 7.00015C22 10.4002 19.944 14.0002 18 14.0002C16.056 14.0002 14 10.4002 14 7.00015Z" fill="#374957"/>
</g>
<defs>
<clipPath id="clip0_7_5014">
<rect width="24" height="24" fill="white"/>
</clipPath>
</defs>
</svg>
