<svg width="24" height="24" viewBox="0 0 24 24" fill="none" xmlns="http://www.w3.org/2000/svg">
<g id="fi-rr-layers" clip-path="url(#clip0_7_5577)">
<path d="M22.4855 10.9755L12.0005 17.2675L1.51549 10.9755C1.28806 10.8391 1.01575 10.7985 0.75845 10.8629C0.50115 10.9272 0.279942 11.0911 0.143488 11.3185C0.00703394 11.5459 -0.0334877 11.8183 0.0308373 12.0756C0.0951623 12.3329 0.259065 12.5541 0.486488 12.6905L11.4865 19.2905C11.642 19.384 11.82 19.4333 12.0015 19.4333C12.1829 19.4333 12.361 19.384 12.5165 19.2905L23.5165 12.6905C23.7439 12.5541 23.9078 12.3329 23.9721 12.0756C24.0365 11.8183 23.9959 11.5459 23.8595 11.3185C23.723 11.0911 23.5018 10.9272 23.2445 10.8629C22.9872 10.7985 22.7149 10.8391 22.4875 10.9755H22.4855Z" fill="#374957"/>
<path id="_2" d="M22.4855 15.5429L12.0005 21.8339L1.51549 15.5429C1.40288 15.4753 1.27806 15.4306 1.14817 15.4113C1.01828 15.392 0.885849 15.3984 0.758447 15.4303C0.631045 15.4621 0.511164 15.5187 0.405649 15.5969C0.300133 15.6751 0.21105 15.7733 0.143485 15.8859C0.0759198 15.9985 0.0311961 16.1233 0.0118675 16.2532C-0.0074611 16.3831 -0.00101616 16.5155 0.0308343 16.6429C0.0951593 16.9002 0.259062 17.1215 0.486485 17.2579L11.4865 23.8579C11.642 23.9514 11.82 24.0007 12.0015 24.0007C12.1829 24.0007 12.361 23.9514 12.5165 23.8579L23.5165 17.2579C23.7439 17.1215 23.9078 16.9002 23.9721 16.6429C24.0365 16.3856 23.9959 16.1133 23.8595 15.8859C23.723 15.6585 23.5018 15.4946 23.2445 15.4303C22.9872 15.3659 22.7149 15.4064 22.4875 15.5429H22.4855Z" fill="#374957"/>
<path id="_3" d="M11.9997 14.7735C11.4603 14.7732 10.9311 14.6263 10.4687 14.3485L0.484684 8.35754C0.336831 8.26864 0.214494 8.143 0.129564 7.99283C0.0446343 7.84266 0 7.67307 0 7.50054C0 7.32802 0.0446343 7.15843 0.129564 7.00826C0.214494 6.85809 0.336831 6.73245 0.484684 6.64354L10.4687 0.652544C10.9311 0.374773 11.4603 0.228027 11.9997 0.228027C12.5391 0.228027 13.0683 0.374773 13.5307 0.652544L23.5147 6.64354C23.6625 6.73245 23.7849 6.85809 23.8698 7.00826C23.9547 7.15843 23.9994 7.32802 23.9994 7.50054C23.9994 7.67307 23.9547 7.84266 23.8698 7.99283C23.7849 8.143 23.6625 8.26864 23.5147 8.35754L13.5307 14.3485C13.0683 14.6263 12.5391 14.7732 11.9997 14.7735ZM2.94368 7.50054L11.4997 12.6335C11.6508 12.7239 11.8236 12.7717 11.9997 12.7717C12.1758 12.7717 12.3486 12.7239 12.4997 12.6335L21.0557 7.50054L12.4997 2.36754C12.3486 2.27715 12.1758 2.22941 11.9997 2.22941C11.8236 2.22941 11.6508 2.27715 11.4997 2.36754L2.94368 7.50054Z" fill="#374957"/>
</g>
<defs>
<clipPath id="clip0_7_5577">
<rect width="24" height="24" fill="white"/>
</clipPath>
</defs>
</svg>
