<svg width="24" height="24" viewBox="0 0 24 24" fill="none" xmlns="http://www.w3.org/2000/svg">
<g clip-path="url(#clip0_11_565)">
<path d="M23.7102 16.2899L15.5402 8.11994C15.0757 7.65431 14.524 7.28488 13.9165 7.03281C13.3091 6.78075 12.6579 6.651 12.0002 6.651C11.3425 6.651 10.6913 6.78075 10.0838 7.03281C9.4764 7.28488 8.92464 7.65431 8.46019 8.11994L0.290185 16.2899C0.101882 16.4782 -0.00390625 16.7336 -0.00390625 16.9999C-0.00390625 17.2662 0.101882 17.5216 0.290185 17.7099C0.478489 17.8982 0.733884 18.004 1.00019 18.004C1.26649 18.004 1.52188 17.8982 1.71019 17.7099L9.88019 9.53994C10.4427 8.97814 11.2052 8.66258 12.0002 8.66258C12.7952 8.66258 13.5577 8.97814 14.1202 9.53994L22.2902 17.7099C22.3832 17.8037 22.4937 17.8781 22.6156 17.9288C22.7375 17.9796 22.8682 18.0057 23.0002 18.0057C23.1322 18.0057 23.2629 17.9796 23.3848 17.9288C23.5066 17.8781 23.6172 17.8037 23.7102 17.7099C23.8039 17.617 23.8783 17.5064 23.9291 17.3845C23.9798 17.2627 24.006 17.132 24.006 16.9999C24.006 16.8679 23.9798 16.7372 23.9291 16.6154C23.8783 16.4935 23.8039 16.3829 23.7102 16.2899Z" fill="#374957"/>
</g>
<defs>
<clipPath id="clip0_11_565">
<rect width="24" height="24" fill="white"/>
</clipPath>
</defs>
</svg>
