<svg width="24" height="24" viewBox="0 0 24 24" fill="none" xmlns="http://www.w3.org/2000/svg">
<g id="fi-rr-telegram">
<path id="Oval" d="M12 24C18.6274 24 24 18.6274 24 12C24 5.37258 18.6274 0 12 0C5.37258 0 0 5.37258 0 12C0 18.6274 5.37258 24 12 24Z" fill="#374957"/>
<path id="Path" fill-rule="evenodd" clip-rule="evenodd" d="M5.50363 11.9546C8.97263 10.4565 11.2858 9.46892 12.4433 8.99175C15.7479 7.62933 16.4346 7.39266 16.8822 7.38485C16.9806 7.38313 17.2007 7.40731 17.3433 7.52198C17.4637 7.6188 17.4968 7.7496 17.5127 7.8414C17.5285 7.9332 17.5483 8.14232 17.5326 8.30573C17.3535 10.1708 16.5786 14.6968 16.1844 16.7856C16.0176 17.6695 15.6891 17.9659 15.3712 17.9949C14.6801 18.0579 14.1554 17.5422 13.4861 17.1074C12.4387 16.4269 11.8471 16.0033 10.8305 15.3392C9.65558 14.5718 10.4172 14.15 11.0868 13.4607C11.262 13.2803 14.3067 10.5353 14.3656 10.2863C14.373 10.2552 14.3799 10.1391 14.3103 10.0778C14.2407 10.0165 14.138 10.0374 14.0639 10.0541C13.9589 10.0777 12.2857 11.1739 9.04453 13.3425C8.56962 13.6657 8.13946 13.8232 7.75406 13.815C7.32917 13.8059 6.51187 13.5769 5.9043 13.3811C5.15908 13.141 4.56679 13.014 4.61837 12.6063C4.64523 12.3939 4.94032 12.1767 5.50363 11.9546Z" fill="white"/>
</g>
</svg>
