<svg width="24" height="24" xmlns="http://www.w3.org/2000/svg" class="icon flat-color">

 <g>
  <title>background</title>
  <rect fill="none" id="canvas_background" height="402" width="582" y="-1" x="-1"/>
 </g>
 <g>
  <title>Layer 1</title>
  <path fill="#ff0000" d="m14,12a5,5 0 0 0 0,-10l-5,0a1,1 0 0 0 -1,1l0,11l-2,0a1,1 0 0 0 0,2l2,0l0,5a1,1 0 0 0 2,0l0,-5l5,0a1,1 0 0 0 0,-2l-5,0l0,-2l4,0zm-4,-8l4,0a3,3 0 0 1 0,6l-4,0l0,-6z" id="primary"/>
  <line stroke-linecap="null" stroke-linejoin="null" id="svg_1" y2="0.557918" x2="22.634733" y1="22.829609" x1="0.808476" stroke-width="NaN" fill="none"/>
  <path d="m1.031193,21.493307c0.222717,-0.222717 0.366037,-0.406603 0.779509,-0.779509c0.482187,-0.434879 0.749054,-0.589489 1.224943,-1.002226c0.420631,-0.364811 0.852798,-0.597664 1.44766,-1.113585c0.420631,-0.364811 0.637696,-0.700848 1.113585,-1.113585c0.420631,-0.364811 1.050807,-0.605755 1.781735,-1.224943c0.480656,-0.407176 0.890867,-0.668151 1.447659,-1.224943c0.445435,-0.445434 0.55329,-0.714039 0.77951,-1.113585c0.31037,-0.548172 0.849143,-0.936927 1.336302,-1.336302c0.621006,-0.509104 1.493595,-0.823358 2.338527,-1.447659c1.777767,-1.313553 2.587036,-2.082738 3.452112,-2.783961c0.919588,-0.74541 1.496241,-1.385263 2.227169,-2.004452c0.480656,-0.407176 0.861654,-1.028659 1.670378,-1.893094c0.645546,-0.690015 1.151556,-1.077658 1.781734,-1.781735c0.475544,-0.531308 0.66815,-0.779509 1.113585,-1.44766l0.222717,-0.222717l0.111359,-0.111359" id="svg_2" stroke-width="NaN" fill="none"/>
  <rect stroke="#ff0000" transform="rotate(-50.89140319824219 11.807157516479494,11.570567131042482) " className="red__ruble" id="svg_6" height="0.668151" width="24.819127" y="11.236492" x="-0.602406" fill-opacity="null" stroke-opacity="null" stroke-width="NaN" fill="none"/>
 </g>
</svg>