<svg width="24" height="24" viewBox="0 0 24 24" fill="none" xmlns="http://www.w3.org/2000/svg">
<g id="Yes">
<circle id="Ellipse 3" cx="12" cy="12" r="12" fill="#4FCA4D"/>
<path d="M18.4309 7.68837L9.79472 16.5329C9.73666 16.5926 9.66766 16.64 9.59167 16.6723C9.51569 16.7046 9.43423 16.7213 9.35195 16.7213C9.26967 16.7213 9.18821 16.7046 9.11222 16.6723C9.03624 16.64 8.96724 16.5926 8.90917 16.5329L5.56946 13.1092C5.5114 13.0495 5.4424 13.0021 5.36641 12.9698C5.29043 12.9374 5.20897 12.9208 5.12669 12.9208C5.04441 12.9208 4.96295 12.9374 4.88696 12.9698C4.81098 13.0021 4.74198 13.0495 4.68391 13.1092C4.62562 13.1686 4.57937 13.2393 4.54781 13.3171C4.51625 13.3949 4.5 13.4784 4.5 13.5627C4.5 13.6469 4.51625 13.7304 4.54781 13.8082C4.57937 13.886 4.62562 13.9567 4.68391 14.0161L8.02488 17.4373C8.37731 17.7976 8.85493 18 9.35289 18C9.85084 18 10.3285 17.7976 10.6809 17.4373L19.3164 8.59471C19.3746 8.53526 19.4208 8.46462 19.4523 8.38686C19.4838 8.3091 19.5 8.22573 19.5 8.14154C19.5 8.05735 19.4838 7.97398 19.4523 7.89622C19.4208 7.81846 19.3746 7.74782 19.3164 7.68837C19.2583 7.62866 19.1893 7.58129 19.1134 7.54896C19.0374 7.51664 18.9559 7.5 18.8736 7.5C18.7913 7.5 18.7099 7.51664 18.6339 7.54896C18.5579 7.58129 18.4889 7.62866 18.4309 7.68837Z" fill="white"/>
</g>
</svg>
